<svg version="1.2" xmlns="http://www.w3.org/2000/svg" viewBox="0 0 2503 1053" width="2503" height="1053"><style>.a{fill:none}.b{fill:#efc031}</style><path fill-rule="evenodd" class="a" d="m0-684h2500v2500h-2500z"/><path fill-rule="evenodd" class="b" d="m487.5 434.3c58.9 82.7 8.8 153-9.9 183.7-18.6 30.6-118.7 82.3-115.9 91.1 1.7 5.5 92.1 293.1 90.1 303.9-2 10.9-9.1 17.6-26.4 17.2-17.3-0.4-44.1-35.1-131.8-136.4-87.8-101.3-156.8-238.8-177.5-319.1-20.7-80.4 14.5-129 102.8-195.1 88.3-66.1 209.7-28 268.6 54.7zm-137.5 42c-30.2-18.7-72.3-22-89.8 0.6-17.5 22.7-40.8 47.3 23.1 122.7 15.3 18 101.9-15.8 103.9-48.2 1.6-27-12.4-59.8-37.2-75.1zm615.1 284.9c19.7 155-31.6 48.8-58.3 10.2-26.8-38.6-51-126.3-85.3-148.6-34.3-22.4-54.5-8.1-80.2 6.1-25.6 14.2-20.8 56.1-19.5 96.2 1.3 40.1 22.3 98.6 2.9 183.9-19.4 85.2-95.4-77.8-138.6-244-43.1-166.2-6.3-343.5 10-368.7 10.7-16.6 81-61.6 153.1-25.9 95.4 47.4 135.7 148.6 163.1 235.3 25.2 79.9 33.2 100.6 52.8 255.5zm-235.8-348.2c-45.4-33.1-49.4 52.9-52.6 75.7-10.6 74.4 109.4 26.2 114.4 13 4.2-10.6-16.4-55.6-61.8-88.7z"/><path fill-rule="evenodd" class="b" d="m1083.8 342.5c3.8 98.5 78.2 421.6 21.2 440.8-16.2 5.4-73.9-70.9-86.6-219.6-13.4-155.8-36.3-260.6-59.5-321.5-37.2-97.2-43-45.5-127.5-36-125.4 14-61.2-75.5-41-93.4 20.3-17.9 66.5-71.9 223.5-100.6 156.9-28.8 218.8 73.8 224.3 95.9 8.9 36-76.1 22.7-120.4 31.4-44.3 8.7-36.3 142.9-34 203zm479.5-70.2c14.4 14.8 10 69.3 7.8 93-2.1 23.6-14 94.4-25.7 147-11.7 52.6-22.6 123.2-28 181.6-5.6 59.9-9.1 160.5-15.4 192.7-9.7 48.6-30 89-54.3 84.3-55-10.5-23.5-105.7-18.4-161.7 3.7-39.9-2.7-118.4-4.2-140.2-2.4-33.7-70.6-42.9-88.9-34-18.3 8.8-30.2 77.8-32.3 97.8-2.1 20-37.5 212.4-79.3 208.2-41.8-4.3-30.2-56.9-31.6-84.2-1.5-27.3 8.5-218.3 20.3-283.6 11.9-65.4 35.9-223.4 64.4-308.5 28.5-85.1 69.7-50.8 69.7-50.8 30.8 35.3 2.3 110.1-7.6 164.5-9.9 54.5-25.6 138 28.6 166 54.2 28.1 83.8 7.1 88.1-53.4 2.7-37.6 0.5-89.4 24.4-177.9 23.7-88.5 68.1-55.5 82.4-40.8zm480 47.3c-14.7 7-36.4-4.2-99.8-21.5-63.5-17.2-81.4-35.7-83-55.7-1.5-20.1 13-33.4 33.3-34.1 36.4-1.3 130.5 38.2 170.2 60.6 39.7 22.4-6.1 43.6-20.7 50.7zm-54.4 110.2c27.5 41.1-34.7 65.2-58.3 61.2-23.5-3.9-61.5-75.3-116.7-36.3-14.1 9.9-36.2 15.8-50.3 79.4-13.5 61.1 30.3 62.4 68.3 79.3 38 16.9 22.6 71.3-8.5 83.6-31.1 12.3-79-19.6-139.6 81.6-13.9 23.2-10.4 92.7 44.1 98.9 54.5 6.2 105.6 10.3 99.3 68.4-6.2 58.2-112 55.2-135.5 49.4-147.9-36.3-112.9-125.3-110.6-165.3 2.4-40.1 101.5-347.6 112.6-367.9 13.8-25.4 65.2-110.1 139.9-114.5 74.7-4.4 106.4 9 155.3 82.2zm158 544.6c-2 16.3-14.4 38.8-47.9 41-49.7 3.3-61.2-46.2-55.4-68 5.7-21.7 40.3-27.4 56.8-26.5 45.4 2.5 48.6 37.1 46.5 53.5zm232.2-506.7c-15.2 43.4-106.6 199.5-136.4 247.4-27.9 45-56 106.6-85.5 128-29.4 21.4-44 7.4-46.8-37.1-2.2-36.1 3.7-79.6 10.9-127.2 8.1-52.7 62.5-304.9 86.6-331.8 24-27 80.9-60.8 136.9-32.7 56.1 28.1 49.4 109.9 34.3 153.4z"/></svg>